<mxfile host="app.diagrams.net" modified="2023-05-29T07:50:56.326Z" agent="Mozilla/5.0 (Macintosh; Intel Mac OS X 10_15_7) AppleWebKit/537.36 (KHTML, like Gecko) Chrome/113.0.0.0 Safari/537.36" etag="LOytxW9b6GdFFPTJK7VC" version="21.3.5" type="github">
  <diagram name="Page-1" id="o1bOIJuOjUN4k_aocpNO">
    <mxGraphModel dx="954" dy="1817" grid="1" gridSize="10" guides="1" tooltips="1" connect="1" arrows="1" fold="1" page="1" pageScale="1" pageWidth="827" pageHeight="1169" math="0" shadow="0">
      <root>
        <mxCell id="0" />
        <mxCell id="1" parent="0" />
        <mxCell id="xMCiznvXuQJXccrHZAgW-28" style="edgeStyle=orthogonalEdgeStyle;rounded=0;orthogonalLoop=1;jettySize=auto;html=1;entryX=0;entryY=0.5;entryDx=0;entryDy=0;" parent="1" source="xMCiznvXuQJXccrHZAgW-1" target="xMCiznvXuQJXccrHZAgW-7" edge="1">
          <mxGeometry relative="1" as="geometry" />
        </mxCell>
        <mxCell id="xMCiznvXuQJXccrHZAgW-1" value="" style="rounded=0;whiteSpace=wrap;html=1;" parent="1" vertex="1">
          <mxGeometry x="130" y="140" width="1010" height="620" as="geometry" />
        </mxCell>
        <mxCell id="xMCiznvXuQJXccrHZAgW-2" value="&lt;font style=&quot;font-size: 25px;&quot;&gt;GOOSE_RELOADED&lt;/font&gt;" style="rounded=0;whiteSpace=wrap;html=1;fillColor=#0000FF;fontColor=#FFFFFF;fontSize=16;" parent="1" vertex="1">
          <mxGeometry x="130" y="140" width="1010" height="110" as="geometry" />
        </mxCell>
        <mxCell id="xMCiznvXuQJXccrHZAgW-3" value="The Easiest way to track Reloading data" style="text;html=1;strokeColor=none;fillColor=none;align=center;verticalAlign=middle;whiteSpace=wrap;rounded=0;fontSize=33;" parent="1" vertex="1">
          <mxGeometry x="130" y="410" width="1010" height="30" as="geometry" />
        </mxCell>
        <mxCell id="xMCiznvXuQJXccrHZAgW-4" value="Login" style="rounded=1;whiteSpace=wrap;html=1;fontSize=17;fontColor=#0000FF;" parent="1" vertex="1">
          <mxGeometry x="480" y="490" width="120" height="60" as="geometry" />
        </mxCell>
        <mxCell id="xMCiznvXuQJXccrHZAgW-5" value="Signup" style="rounded=1;whiteSpace=wrap;html=1;fontSize=17;fontColor=#3333FF;" parent="1" vertex="1">
          <mxGeometry x="660" y="490" width="120" height="60" as="geometry" />
        </mxCell>
        <mxCell id="xMCiznvXuQJXccrHZAgW-6" value="&lt;h1&gt;Landing Page&lt;/h1&gt;&lt;div&gt;This is the first page the unauthenticated user will see&amp;nbsp;&lt;/div&gt;" style="text;html=1;strokeColor=none;fillColor=none;spacing=5;spacingTop=-20;whiteSpace=wrap;overflow=hidden;rounded=0;" parent="1" vertex="1">
          <mxGeometry x="380" width="510" height="120" as="geometry" />
        </mxCell>
        <mxCell id="xMCiznvXuQJXccrHZAgW-73" style="edgeStyle=orthogonalEdgeStyle;rounded=0;orthogonalLoop=1;jettySize=auto;html=1;entryX=0;entryY=0.36;entryDx=0;entryDy=0;entryPerimeter=0;" parent="1" source="xMCiznvXuQJXccrHZAgW-7" target="xMCiznvXuQJXccrHZAgW-29" edge="1">
          <mxGeometry relative="1" as="geometry" />
        </mxCell>
        <mxCell id="xMCiznvXuQJXccrHZAgW-7" value="" style="rounded=0;whiteSpace=wrap;html=1;shadow=0;" parent="1" vertex="1">
          <mxGeometry x="1563" y="140" width="1010" height="620" as="geometry" />
        </mxCell>
        <mxCell id="xMCiznvXuQJXccrHZAgW-8" value="&lt;font style=&quot;font-size: 25px;&quot;&gt;GOOSE_RELOADED&lt;/font&gt;" style="rounded=0;whiteSpace=wrap;html=1;fillColor=#0000FF;fontColor=#FFFFFF;fontSize=16;" parent="1" vertex="1">
          <mxGeometry x="1563" y="140" width="1010" height="110" as="geometry" />
        </mxCell>
        <mxCell id="xMCiznvXuQJXccrHZAgW-9" value="" style="sketch=0;pointerEvents=1;shadow=0;dashed=0;html=1;strokeColor=none;fillColor=#CCCBCB;labelPosition=center;verticalLabelPosition=bottom;verticalAlign=top;outlineConnect=0;align=center;shape=mxgraph.office.concepts.home;" parent="1" vertex="1">
          <mxGeometry x="1600" y="170" width="53" height="43" as="geometry" />
        </mxCell>
        <mxCell id="xMCiznvXuQJXccrHZAgW-10" value="Logout" style="rounded=1;whiteSpace=wrap;html=1;fontSize=15;" parent="1" vertex="1">
          <mxGeometry x="2450" y="177.5" width="110" height="35" as="geometry" />
        </mxCell>
        <mxCell id="xMCiznvXuQJXccrHZAgW-11" value="User@gmail.com" style="text;html=1;strokeColor=none;fillColor=none;align=center;verticalAlign=middle;whiteSpace=wrap;rounded=0;fontColor=#FFFFFF;fontSize=15;" parent="1" vertex="1">
          <mxGeometry x="2350" y="180" width="60" height="30" as="geometry" />
        </mxCell>
        <mxCell id="xMCiznvXuQJXccrHZAgW-12" value="Add Reload" style="rounded=1;whiteSpace=wrap;html=1;fontColor=#FFFFFF;labelBackgroundColor=none;fillColor=#0000FF;fontSize=17;" parent="1" vertex="1">
          <mxGeometry x="2008" y="280" width="120" height="60" as="geometry" />
        </mxCell>
        <mxCell id="xMCiznvXuQJXccrHZAgW-13" value="Previous Reload" style="rounded=1;whiteSpace=wrap;html=1;strokeColor=#0000FF;shadow=1;fontColor=#000000;fontSize=16;" parent="1" vertex="1">
          <mxGeometry x="1590" y="370" width="150" height="160" as="geometry" />
        </mxCell>
        <mxCell id="xMCiznvXuQJXccrHZAgW-19" value="Previous Reload" style="rounded=1;whiteSpace=wrap;html=1;strokeColor=#0000FF;shadow=1;fontColor=#000000;fontSize=16;" parent="1" vertex="1">
          <mxGeometry x="1790" y="370" width="150" height="160" as="geometry" />
        </mxCell>
        <mxCell id="xMCiznvXuQJXccrHZAgW-20" value="Previous Reload" style="rounded=1;whiteSpace=wrap;html=1;strokeColor=#0000FF;shadow=1;fontColor=#000000;fontSize=16;" parent="1" vertex="1">
          <mxGeometry x="1970" y="370" width="150" height="160" as="geometry" />
        </mxCell>
        <mxCell id="xMCiznvXuQJXccrHZAgW-21" value="Previous Reload" style="rounded=1;whiteSpace=wrap;html=1;strokeColor=#0000FF;shadow=1;fontColor=#000000;fontSize=16;" parent="1" vertex="1">
          <mxGeometry x="2170" y="370" width="150" height="160" as="geometry" />
        </mxCell>
        <mxCell id="xMCiznvXuQJXccrHZAgW-22" value="Previous Reload" style="rounded=1;whiteSpace=wrap;html=1;strokeColor=#0000FF;shadow=1;fontColor=#000000;fontSize=16;" parent="1" vertex="1">
          <mxGeometry x="2380" y="360" width="150" height="160" as="geometry" />
        </mxCell>
        <mxCell id="xMCiznvXuQJXccrHZAgW-23" value="Previous Reload" style="rounded=1;whiteSpace=wrap;html=1;strokeColor=#0000FF;shadow=1;fontColor=#000000;fontSize=16;" parent="1" vertex="1">
          <mxGeometry x="1590" y="560" width="150" height="160" as="geometry" />
        </mxCell>
        <mxCell id="xMCiznvXuQJXccrHZAgW-24" value="Previous Reload" style="rounded=1;whiteSpace=wrap;html=1;strokeColor=#0000FF;shadow=1;fontColor=#000000;fontSize=16;" parent="1" vertex="1">
          <mxGeometry x="1790" y="560" width="150" height="160" as="geometry" />
        </mxCell>
        <mxCell id="xMCiznvXuQJXccrHZAgW-25" value="Previous Reload" style="rounded=1;whiteSpace=wrap;html=1;strokeColor=#0000FF;shadow=1;fontColor=#000000;fontSize=16;" parent="1" vertex="1">
          <mxGeometry x="1970" y="560" width="150" height="160" as="geometry" />
        </mxCell>
        <mxCell id="xMCiznvXuQJXccrHZAgW-26" value="Previous Reload" style="rounded=1;whiteSpace=wrap;html=1;strokeColor=#0000FF;shadow=1;fontColor=#000000;fontSize=16;" parent="1" vertex="1">
          <mxGeometry x="2170" y="560" width="150" height="160" as="geometry" />
        </mxCell>
        <mxCell id="xMCiznvXuQJXccrHZAgW-27" value="Previous Reload" style="rounded=1;whiteSpace=wrap;html=1;strokeColor=#0000FF;shadow=1;fontColor=#000000;fontSize=16;" parent="1" vertex="1">
          <mxGeometry x="2380" y="560" width="150" height="160" as="geometry" />
        </mxCell>
        <mxCell id="xMCiznvXuQJXccrHZAgW-29" value="" style="rounded=0;whiteSpace=wrap;html=1;shadow=0;" parent="1" vertex="1">
          <mxGeometry x="2820" y="140" width="1010" height="860" as="geometry" />
        </mxCell>
        <mxCell id="xMCiznvXuQJXccrHZAgW-30" value="&lt;font style=&quot;font-size: 25px;&quot;&gt;GOOSE_RELOADED&lt;/font&gt;" style="rounded=0;whiteSpace=wrap;html=1;fillColor=#0000FF;fontColor=#FFFFFF;fontSize=16;" parent="1" vertex="1">
          <mxGeometry x="2820" y="140" width="1010" height="110" as="geometry" />
        </mxCell>
        <mxCell id="xMCiznvXuQJXccrHZAgW-31" value="" style="sketch=0;pointerEvents=1;shadow=0;dashed=0;html=1;strokeColor=none;fillColor=#CCCBCB;labelPosition=center;verticalLabelPosition=bottom;verticalAlign=top;outlineConnect=0;align=center;shape=mxgraph.office.concepts.home;" parent="1" vertex="1">
          <mxGeometry x="2857" y="170" width="53" height="43" as="geometry" />
        </mxCell>
        <mxCell id="xMCiznvXuQJXccrHZAgW-32" value="Logout" style="rounded=1;whiteSpace=wrap;html=1;fontSize=15;" parent="1" vertex="1">
          <mxGeometry x="3707" y="177.5" width="110" height="35" as="geometry" />
        </mxCell>
        <mxCell id="xMCiznvXuQJXccrHZAgW-33" value="User@gmail.com" style="text;html=1;strokeColor=none;fillColor=none;align=center;verticalAlign=middle;whiteSpace=wrap;rounded=0;fontColor=#FFFFFF;fontSize=15;" parent="1" vertex="1">
          <mxGeometry x="3607" y="180" width="60" height="30" as="geometry" />
        </mxCell>
        <mxCell id="xMCiznvXuQJXccrHZAgW-34" value="Reload Parameters" style="rounded=1;whiteSpace=wrap;html=1;fontColor=#FFFFFF;labelBackgroundColor=none;fillColor=#0000FF;fontSize=20;" parent="1" vertex="1">
          <mxGeometry x="3040" y="280" width="600" height="60" as="geometry" />
        </mxCell>
        <mxCell id="xMCiznvXuQJXccrHZAgW-45" value="" style="rounded=1;whiteSpace=wrap;html=1;movable=1;resizable=1;rotatable=1;deletable=1;editable=1;locked=0;connectable=1;" parent="1" vertex="1">
          <mxGeometry x="2850" y="420" width="476.5" height="290" as="geometry" />
        </mxCell>
        <mxCell id="xMCiznvXuQJXccrHZAgW-46" value="Bullet Type" style="text;html=1;strokeColor=none;fillColor=none;align=center;verticalAlign=middle;whiteSpace=wrap;rounded=0;" parent="1" vertex="1">
          <mxGeometry x="2900" y="435" width="120" height="30" as="geometry" />
        </mxCell>
        <mxCell id="xMCiznvXuQJXccrHZAgW-47" value="" style="rounded=1;whiteSpace=wrap;html=1;" parent="1" vertex="1">
          <mxGeometry x="2900" y="470" width="330" height="30" as="geometry" />
        </mxCell>
        <mxCell id="xMCiznvXuQJXccrHZAgW-48" value="" style="rounded=1;whiteSpace=wrap;html=1;" parent="1" vertex="1">
          <mxGeometry x="2900" y="550" width="330" height="30" as="geometry" />
        </mxCell>
        <mxCell id="xMCiznvXuQJXccrHZAgW-49" value="Bullet Weight" style="text;html=1;strokeColor=none;fillColor=none;align=center;verticalAlign=middle;whiteSpace=wrap;rounded=0;" parent="1" vertex="1">
          <mxGeometry x="2900" y="520" width="120" height="30" as="geometry" />
        </mxCell>
        <mxCell id="xMCiznvXuQJXccrHZAgW-52" value="" style="rounded=1;whiteSpace=wrap;html=1;" parent="1" vertex="1">
          <mxGeometry x="2900" y="630" width="330" height="30" as="geometry" />
        </mxCell>
        <mxCell id="xMCiznvXuQJXccrHZAgW-53" value="Bullet Make" style="text;html=1;strokeColor=none;fillColor=none;align=center;verticalAlign=middle;whiteSpace=wrap;rounded=0;" parent="1" vertex="1">
          <mxGeometry x="2900" y="600" width="120" height="30" as="geometry" />
        </mxCell>
        <mxCell id="xMCiznvXuQJXccrHZAgW-54" value="" style="rounded=1;whiteSpace=wrap;html=1;movable=1;resizable=1;rotatable=1;deletable=1;editable=1;locked=0;connectable=1;" parent="1" vertex="1">
          <mxGeometry x="3366.5" y="420" width="436.5" height="290" as="geometry" />
        </mxCell>
        <mxCell id="xMCiznvXuQJXccrHZAgW-55" value="" style="rounded=1;whiteSpace=wrap;html=1;" parent="1" vertex="1">
          <mxGeometry x="3410" y="480" width="330" height="30" as="geometry" />
        </mxCell>
        <mxCell id="xMCiznvXuQJXccrHZAgW-56" value="Powder Make" style="text;html=1;strokeColor=none;fillColor=none;align=center;verticalAlign=middle;whiteSpace=wrap;rounded=0;" parent="1" vertex="1">
          <mxGeometry x="3410" y="450" width="120" height="30" as="geometry" />
        </mxCell>
        <mxCell id="xMCiznvXuQJXccrHZAgW-57" value="" style="rounded=1;whiteSpace=wrap;html=1;" parent="1" vertex="1">
          <mxGeometry x="3410" y="560" width="330" height="30" as="geometry" />
        </mxCell>
        <mxCell id="xMCiznvXuQJXccrHZAgW-58" value="Powder Make" style="text;html=1;strokeColor=none;fillColor=none;align=center;verticalAlign=middle;whiteSpace=wrap;rounded=0;" parent="1" vertex="1">
          <mxGeometry x="3410" y="530" width="120" height="30" as="geometry" />
        </mxCell>
        <mxCell id="xMCiznvXuQJXccrHZAgW-59" value="" style="rounded=1;whiteSpace=wrap;html=1;" parent="1" vertex="1">
          <mxGeometry x="3410" y="640" width="330" height="30" as="geometry" />
        </mxCell>
        <mxCell id="xMCiznvXuQJXccrHZAgW-60" value="Powder Make" style="text;html=1;strokeColor=none;fillColor=none;align=center;verticalAlign=middle;whiteSpace=wrap;rounded=0;" parent="1" vertex="1">
          <mxGeometry x="3410" y="610" width="120" height="30" as="geometry" />
        </mxCell>
        <mxCell id="xMCiznvXuQJXccrHZAgW-61" value="" style="rounded=1;whiteSpace=wrap;html=1;movable=1;resizable=1;rotatable=1;deletable=1;editable=1;locked=0;connectable=1;" parent="1" vertex="1">
          <mxGeometry x="2848.25" y="750" width="478.25" height="110" as="geometry" />
        </mxCell>
        <mxCell id="xMCiznvXuQJXccrHZAgW-62" value="" style="rounded=1;whiteSpace=wrap;html=1;" parent="1" vertex="1">
          <mxGeometry x="2895" y="810" width="330" height="30" as="geometry" />
        </mxCell>
        <mxCell id="xMCiznvXuQJXccrHZAgW-63" value="Casing" style="text;html=1;strokeColor=none;fillColor=none;align=center;verticalAlign=middle;whiteSpace=wrap;rounded=0;" parent="1" vertex="1">
          <mxGeometry x="2900" y="770" width="120" height="30" as="geometry" />
        </mxCell>
        <mxCell id="xMCiznvXuQJXccrHZAgW-65" value="" style="rounded=1;whiteSpace=wrap;html=1;movable=1;resizable=1;rotatable=1;deletable=1;editable=1;locked=0;connectable=1;" parent="1" vertex="1">
          <mxGeometry x="3366.5" y="750" width="429.5" height="110" as="geometry" />
        </mxCell>
        <mxCell id="xMCiznvXuQJXccrHZAgW-66" value="" style="rounded=1;whiteSpace=wrap;html=1;" parent="1" vertex="1">
          <mxGeometry x="3400" y="810" width="330" height="30" as="geometry" />
        </mxCell>
        <mxCell id="xMCiznvXuQJXccrHZAgW-67" value="Primer" style="text;html=1;strokeColor=none;fillColor=none;align=center;verticalAlign=middle;whiteSpace=wrap;rounded=0;" parent="1" vertex="1">
          <mxGeometry x="3400" y="770" width="120" height="30" as="geometry" />
        </mxCell>
        <mxCell id="xMCiznvXuQJXccrHZAgW-68" value="Add Reload" style="rounded=1;whiteSpace=wrap;html=1;fontColor=#FFFFFF;labelBackgroundColor=none;fillColor=#0000FF;fontSize=20;" parent="1" vertex="1">
          <mxGeometry x="3185" y="910" width="310" height="60" as="geometry" />
        </mxCell>
        <mxCell id="xMCiznvXuQJXccrHZAgW-72" value="&lt;h1&gt;Reload Form&lt;/h1&gt;&lt;div&gt;When the user clicks the add reload button they will then be directed to this page.&lt;/div&gt;&lt;div&gt;&lt;br&gt;&lt;/div&gt;&lt;div&gt;This form will allow user to add all their data to the database.&lt;/div&gt;&lt;div&gt;&lt;br&gt;&lt;/div&gt;&lt;div&gt;The user will remain on this page after they click the button, as this will allow users to add multiple reloads&amp;nbsp; without having to navigate back and forth.&lt;/div&gt;" style="text;html=1;strokeColor=none;fillColor=none;spacing=5;spacingTop=-20;whiteSpace=wrap;overflow=hidden;rounded=0;" parent="1" vertex="1">
          <mxGeometry x="3160" y="-70" width="303.5" height="190" as="geometry" />
        </mxCell>
        <mxCell id="xMCiznvXuQJXccrHZAgW-74" value="&lt;h1&gt;Home Page&lt;/h1&gt;&lt;div&gt;This page will show all the user&#39;s current reloads and the button which will direct them to the form which will allow them to add a new reload.&lt;/div&gt;&lt;div&gt;&lt;br&gt;&lt;/div&gt;&lt;div&gt;The user will be able to from this page edit and delete their current reloads.&lt;/div&gt;&lt;div&gt;&lt;br&gt;&lt;/div&gt;&lt;div&gt;Red button - Delete&lt;/div&gt;&lt;div&gt;Blue button - Edit&lt;/div&gt;" style="text;html=1;strokeColor=none;fillColor=none;spacing=5;spacingTop=-20;whiteSpace=wrap;overflow=hidden;rounded=0;" parent="1" vertex="1">
          <mxGeometry x="1895" y="-80" width="300" height="190" as="geometry" />
        </mxCell>
        <mxCell id="xMCiznvXuQJXccrHZAgW-75" value="" style="rounded=1;whiteSpace=wrap;html=1;fillColor=#f8cecc;strokeColor=#b85450;" parent="1" vertex="1">
          <mxGeometry x="1800" y="490" width="60" height="20" as="geometry" />
        </mxCell>
        <mxCell id="xMCiznvXuQJXccrHZAgW-76" value="" style="rounded=1;whiteSpace=wrap;html=1;fillColor=#dae8fc;strokeColor=#6c8ebf;" parent="1" vertex="1">
          <mxGeometry x="1870" y="490" width="60" height="20" as="geometry" />
        </mxCell>
        <mxCell id="xMCiznvXuQJXccrHZAgW-77" value="" style="rounded=1;whiteSpace=wrap;html=1;fillColor=#f8cecc;strokeColor=#b85450;" parent="1" vertex="1">
          <mxGeometry x="1980" y="490" width="60" height="20" as="geometry" />
        </mxCell>
        <mxCell id="xMCiznvXuQJXccrHZAgW-78" value="" style="rounded=1;whiteSpace=wrap;html=1;fillColor=#dae8fc;strokeColor=#6c8ebf;" parent="1" vertex="1">
          <mxGeometry x="2050" y="490" width="60" height="20" as="geometry" />
        </mxCell>
        <mxCell id="xMCiznvXuQJXccrHZAgW-79" value="" style="rounded=1;whiteSpace=wrap;html=1;fillColor=#f8cecc;strokeColor=#b85450;" parent="1" vertex="1">
          <mxGeometry x="2180" y="490" width="60" height="20" as="geometry" />
        </mxCell>
        <mxCell id="xMCiznvXuQJXccrHZAgW-80" value="" style="rounded=1;whiteSpace=wrap;html=1;fillColor=#dae8fc;strokeColor=#6c8ebf;" parent="1" vertex="1">
          <mxGeometry x="2250" y="490" width="60" height="20" as="geometry" />
        </mxCell>
        <mxCell id="xMCiznvXuQJXccrHZAgW-81" value="" style="rounded=1;whiteSpace=wrap;html=1;fillColor=#f8cecc;strokeColor=#b85450;" parent="1" vertex="1">
          <mxGeometry x="2390" y="490" width="60" height="20" as="geometry" />
        </mxCell>
        <mxCell id="xMCiznvXuQJXccrHZAgW-82" value="" style="rounded=1;whiteSpace=wrap;html=1;fillColor=#dae8fc;strokeColor=#6c8ebf;" parent="1" vertex="1">
          <mxGeometry x="2460" y="490" width="60" height="20" as="geometry" />
        </mxCell>
        <mxCell id="xMCiznvXuQJXccrHZAgW-83" value="" style="rounded=1;whiteSpace=wrap;html=1;fillColor=#f8cecc;strokeColor=#b85450;" parent="1" vertex="1">
          <mxGeometry x="2390" y="680" width="60" height="20" as="geometry" />
        </mxCell>
        <mxCell id="xMCiznvXuQJXccrHZAgW-84" value="" style="rounded=1;whiteSpace=wrap;html=1;fillColor=#dae8fc;strokeColor=#6c8ebf;" parent="1" vertex="1">
          <mxGeometry x="2460" y="680" width="60" height="20" as="geometry" />
        </mxCell>
        <mxCell id="xMCiznvXuQJXccrHZAgW-85" value="" style="rounded=1;whiteSpace=wrap;html=1;fillColor=#f8cecc;strokeColor=#b85450;" parent="1" vertex="1">
          <mxGeometry x="2180" y="690" width="60" height="20" as="geometry" />
        </mxCell>
        <mxCell id="xMCiznvXuQJXccrHZAgW-86" value="" style="rounded=1;whiteSpace=wrap;html=1;fillColor=#dae8fc;strokeColor=#6c8ebf;" parent="1" vertex="1">
          <mxGeometry x="2250" y="690" width="60" height="20" as="geometry" />
        </mxCell>
        <mxCell id="xMCiznvXuQJXccrHZAgW-87" value="" style="rounded=1;whiteSpace=wrap;html=1;fillColor=#f8cecc;strokeColor=#b85450;" parent="1" vertex="1">
          <mxGeometry x="1980" y="690" width="60" height="20" as="geometry" />
        </mxCell>
        <mxCell id="xMCiznvXuQJXccrHZAgW-88" value="" style="rounded=1;whiteSpace=wrap;html=1;fillColor=#dae8fc;strokeColor=#6c8ebf;" parent="1" vertex="1">
          <mxGeometry x="2050" y="690" width="60" height="20" as="geometry" />
        </mxCell>
        <mxCell id="xMCiznvXuQJXccrHZAgW-89" value="" style="rounded=1;whiteSpace=wrap;html=1;fillColor=#f8cecc;strokeColor=#b85450;" parent="1" vertex="1">
          <mxGeometry x="1800" y="690" width="60" height="20" as="geometry" />
        </mxCell>
        <mxCell id="xMCiznvXuQJXccrHZAgW-90" value="" style="rounded=1;whiteSpace=wrap;html=1;fillColor=#dae8fc;strokeColor=#6c8ebf;" parent="1" vertex="1">
          <mxGeometry x="1870" y="690" width="60" height="20" as="geometry" />
        </mxCell>
        <mxCell id="xMCiznvXuQJXccrHZAgW-91" value="" style="rounded=1;whiteSpace=wrap;html=1;fillColor=#f8cecc;strokeColor=#b85450;" parent="1" vertex="1">
          <mxGeometry x="1600" y="690" width="60" height="20" as="geometry" />
        </mxCell>
        <mxCell id="xMCiznvXuQJXccrHZAgW-92" value="" style="rounded=1;whiteSpace=wrap;html=1;fillColor=#dae8fc;strokeColor=#6c8ebf;" parent="1" vertex="1">
          <mxGeometry x="1670" y="690" width="60" height="20" as="geometry" />
        </mxCell>
        <mxCell id="xMCiznvXuQJXccrHZAgW-93" value="" style="rounded=1;whiteSpace=wrap;html=1;fillColor=#f8cecc;strokeColor=#b85450;" parent="1" vertex="1">
          <mxGeometry x="1600" y="500" width="60" height="20" as="geometry" />
        </mxCell>
        <mxCell id="xMCiznvXuQJXccrHZAgW-94" value="" style="rounded=1;whiteSpace=wrap;html=1;fillColor=#dae8fc;strokeColor=#6c8ebf;" parent="1" vertex="1">
          <mxGeometry x="1670" y="500" width="60" height="20" as="geometry" />
        </mxCell>
      </root>
    </mxGraphModel>
  </diagram>
</mxfile>
